<svg width="190" height="73" viewBox="0 0 190 73" fill="none" xmlns="http://www.w3.org/2000/svg">
<g clip-path="url(#clip0)">
<path d="M58.9481 57.3999H51.9185C51.7321 57.3999 51.5533 57.4736 51.4215 57.6049C51.2896 57.7362 51.2156 57.9143 51.2156 58.0999V70.6999C51.2156 70.8855 51.2896 71.0636 51.4215 71.1949C51.5533 71.3262 51.7321 71.3999 51.9185 71.3999H54.9312C55.1176 71.3999 55.2965 71.3262 55.4283 71.1949C55.5601 71.0636 55.6342 70.8855 55.6342 70.6999V67.5999H58.9481C63.668 67.5999 65.8773 65.3999 65.8773 62.4999C65.8773 59.5999 63.668 57.3999 58.9481 57.3999ZM58.9481 64.3999H55.6342V60.5999H58.9481C60.4545 60.5999 61.2579 61.3999 61.2579 62.4999C61.2579 63.5999 60.4545 64.3999 58.9481 64.3999Z" fill="#069E2D"/>
<path d="M81.6437 67.5999C81.2405 66.6946 80.5764 65.9289 79.7357 65.3999V65.1999C79.7357 65.1999 82.4471 64.5999 82.4471 61.9999C82.4471 59.3999 80.3382 57.3999 75.9196 57.3999H68.5887C68.4023 57.3999 68.2235 57.4736 68.0917 57.6049C67.9598 57.7362 67.8857 57.9143 67.8857 58.0999V70.6999C67.8857 70.7918 67.9039 70.8828 67.9393 70.9678C67.9746 71.0527 68.0264 71.1299 68.0917 71.1949C68.1569 71.2599 68.2344 71.3114 68.3197 71.3466C68.405 71.3818 68.4964 71.3999 68.5887 71.3999H71.6014C71.6937 71.3999 71.7851 71.3818 71.8704 71.3466C71.9557 71.3114 72.0332 71.2599 72.0985 71.1949C72.1637 71.1299 72.2155 71.0527 72.2509 70.9678C72.2862 70.8828 72.3044 70.7918 72.3044 70.6999V66.5999H74.9153C75.285 66.5467 75.662 66.6158 75.9885 66.7964C76.315 66.977 76.573 67.2593 76.723 67.5999L78.4301 70.6999C78.5383 70.9448 78.7255 71.1467 78.962 71.2735C79.1985 71.4003 79.4708 71.4448 79.7357 71.3999H82.8488C83.3509 71.3999 83.5517 70.9999 83.3509 70.6999L81.6437 67.5999ZM75.9196 63.3999H72.3044V60.5999H75.9196C77.2251 60.5999 77.8276 61.1999 77.8276 61.9999C77.8276 62.7999 77.2251 63.3999 75.9196 63.3999Z" fill="#069E2D"/>
<path d="M92.8912 57C87.5688 57 84.6565 59.9 84.6565 64.4C84.6565 68.9 87.5688 71.8 92.8912 71.8C98.2136 71.8 101.126 68.9 101.126 64.4C101.126 59.9 98.2136 57 92.8912 57ZM92.8912 68.5C90.6819 68.5 89.276 67.1 89.276 64.4C89.276 61.7 90.6819 60.3 92.8912 60.3C95.1005 60.3 96.5064 61.7 96.5064 64.4C96.5064 67.1 95.1005 68.5 92.8912 68.5Z" fill="#069E2D"/>
<path d="M117.495 57.3999H104.239C104.052 57.3999 103.874 57.4736 103.742 57.6049C103.61 57.7362 103.536 57.9143 103.536 58.0999V70.6999C103.536 70.8855 103.61 71.0636 103.742 71.1949C103.874 71.3262 104.052 71.3999 104.239 71.3999H107.252C107.438 71.3999 107.617 71.3262 107.749 71.1949C107.88 71.0636 107.955 70.8855 107.955 70.6999V60.7999H113.779V70.6999C113.779 70.8855 113.853 71.0636 113.985 71.1949C114.117 71.3262 114.296 71.3999 114.482 71.3999H117.495C117.681 71.3999 117.86 71.3262 117.992 71.1949C118.124 71.0636 118.198 70.8855 118.198 70.6999V58.0999C118.198 57.9143 118.124 57.7362 117.992 57.6049C117.86 57.4736 117.681 57.3999 117.495 57.3999Z" fill="#FF6600"/>
<path d="M128.843 57C123.52 57 120.608 59.9 120.608 64.4C120.608 68.9 123.52 71.8 128.843 71.8C134.165 71.8 137.077 68.9 137.077 64.4C137.077 59.9 134.165 57 128.843 57ZM128.843 68.5C126.633 68.5 125.227 67.1 125.227 64.4C125.227 61.7 126.633 60.3 128.843 60.3C131.052 60.3 132.458 61.7 132.458 64.4C132.458 67.1 131.052 68.5 128.843 68.5Z" fill="#FF6600"/>
<path d="M153.346 57.3999H147.22C143.203 57.3999 141.195 59.3999 140.391 62.5999L138.383 70.6999C138.282 71.0999 138.584 71.3999 139.086 71.3999H142.098C142.295 71.4014 142.486 71.331 142.634 71.202C142.782 71.0729 142.877 70.8943 142.902 70.6999L144.91 62.5999C145.007 62.0705 145.296 61.5949 145.722 61.2632C146.148 60.9315 146.681 60.7667 147.22 60.7999H149.63V70.6999C149.63 70.8855 149.704 71.0636 149.836 71.1949C149.968 71.3262 150.147 71.3999 150.333 71.3999H153.346C153.532 71.3999 153.711 71.3262 153.843 71.1949C153.975 71.0636 154.049 70.8855 154.049 70.6999V58.0999C154.049 57.9143 153.975 57.7362 153.843 57.6049C153.711 57.4736 153.532 57.3999 153.346 57.3999Z" fill="#FF6600"/>
<path d="M171.221 57.3999H167.807C167.579 57.4186 167.36 57.4921 167.167 57.614C166.975 57.736 166.815 57.9028 166.702 58.0999L161.681 65.3999H161.48V58.0999C161.48 57.9143 161.406 57.7362 161.274 57.6049C161.142 57.4736 160.963 57.3999 160.777 57.3999H157.764C157.578 57.3999 157.399 57.4736 157.267 57.6049C157.135 57.7362 157.061 57.9143 157.061 58.0999V70.6999C157.061 70.8855 157.135 71.0636 157.267 71.1949C157.399 71.3262 157.578 71.3999 157.764 71.3999H161.179C161.406 71.3812 161.625 71.3077 161.818 71.1858C162.01 71.0638 162.17 70.8971 162.283 70.6999L167.304 63.3999H167.505V70.6999C167.505 70.8855 167.579 71.0636 167.711 71.1949C167.843 71.3262 168.022 71.3999 168.208 71.3999H171.221C171.407 71.3999 171.586 71.3262 171.718 71.1949C171.85 71.0636 171.924 70.8855 171.924 70.6999V58.0999C171.924 57.9143 171.85 57.7362 171.718 57.6049C171.586 57.4736 171.407 57.3999 171.221 57.3999Z" fill="#FF6600"/>
<path d="M189.197 66H186.686C186.428 66 186.176 66.076 185.962 66.2184C185.747 66.3607 185.58 66.5631 185.481 66.8C185.221 67.3406 184.805 67.7914 184.286 68.0944C183.767 68.3973 183.169 68.5386 182.569 68.5C180.359 68.5 178.953 67.1 178.953 64.4C178.953 61.7 180.359 60.3 182.569 60.3C183.117 60.2703 183.662 60.3953 184.142 60.6606C184.621 60.926 185.016 61.321 185.28 61.8C185.379 62.037 185.547 62.2393 185.761 62.3817C185.975 62.5241 186.227 62.6 186.485 62.6H188.996C189.105 62.6171 189.217 62.6082 189.322 62.574C189.428 62.5399 189.523 62.4814 189.602 62.4034C189.68 62.3255 189.739 62.2302 189.773 62.1253C189.807 62.0204 189.816 61.909 189.799 61.8C189.799 59.5 187.289 57 182.569 57C177.849 57 174.334 59.9 174.334 64.4C174.334 68.9 177.246 71.8 182.569 71.8C187.891 71.8 190 69.2 190 66.8C190.017 66.6911 190.008 66.5796 189.974 66.4747C189.94 66.3699 189.881 66.2746 189.803 66.1966C189.724 66.1186 189.629 66.0602 189.523 66.026C189.418 65.9918 189.306 65.9829 189.197 66Z" fill="#FF6600"/>
<path d="M43.885 18.4L25.8089 0L7.53199 17.9C3.7935 21.5623 1.28463 26.2868 0.349679 31.4253C-0.585273 36.5638 0.0994876 41.8645 2.30999 46.6V40.7L5.12182 39.4V51.4L7.13027 53.8V24.6L9.94213 23V56.7L11.8502 58.6V21.8L14.8628 20.1V61.6L16.9717 63.8V18.6L19.5827 16.8V66.4L21.9929 68.9V15.8L24.6039 14.1V71.5L25.5077 72.5L26.7127 71.3V13.3L41.0732 23.8V57.2L43.7846 54.6C46.1899 52.2363 48.1015 49.4218 49.4093 46.3188C50.7171 43.2159 51.3952 39.886 51.4045 36.5209C51.4139 33.1558 50.7543 29.822 49.4637 26.712C48.1731 23.6019 46.2771 20.777 43.885 18.4Z" fill="#069E2D"/>
</g>
<defs>
<clipPath id="clip0">
<rect width="190" height="72.4" fill="white"/>
</clipPath>
</defs>
</svg>
