<svg id="Слой_1" data-name="Слой 1" xmlns="http://www.w3.org/2000/svg" viewBox="0 0 189.2 72.4"><defs><style>.cls-1{fill:none;}.cls-2{fill:#149e38;}.cls-3{fill:#ec681c;}</style></defs><title>прополис</title><path class="cls-1" d="M117.5,96.9c-2.2,0-3.6,1.4-3.6,4.1s1.4,4.1,3.6,4.1,3.6-1.4,3.6-4.1S119.7,96.9,117.5,96.9Z" transform="translate(-25 -36.6)"/><path class="cls-1" d="M99.2,81.2l.7-.7a3,3,0,0,0,.2-1,3.6,3.6,0,0,0-.2-1l-.7-.7-1-.2H96.5v3.8h1.7Z" transform="translate(-25 -36.6)"/><path class="cls-1" d="M153.3,96.9c-2.2,0-3.6,1.4-3.6,4.1s1.4,4.1,3.6,4.1,3.6-1.4,3.6-4.1S155.5,96.9,153.3,96.9Z" transform="translate(-25 -36.6)"/><path class="cls-1" d="M83.7,97.2H80.4V101h3.3c1.5,0,2.3-.8,2.3-1.9S85.2,97.2,83.7,97.2Z" transform="translate(-25 -36.6)"/><path class="cls-1" d="M100.6,97.2H97V100h3.6c1.3,0,1.9-.6,1.9-1.4S101.9,97.2,100.6,97.2Z" transform="translate(-25 -36.6)"/><polygon class="cls-1" points="78.6 46.1 82.1 46.1 80.4 41.8 78.6 46.1"/><path class="cls-1" d="M168.4,84.5l.7-.6a2.9,2.9,0,0,0,.2-.9,2,2,0,0,0-.2-.9,2,2,0,0,0-.7-.6h-3.7v3.3h2.7Z" transform="translate(-25 -36.6)"/><path class="cls-1" d="M125.8,78.5a3.6,3.6,0,0,0-1.2-.8,3.4,3.4,0,0,0-2.8,0,3.1,3.1,0,0,0-1.1.8,2.5,2.5,0,0,0-.8,1.2,3.2,3.2,0,0,0-.3,1.4,4,4,0,0,0,.3,1.5,2.8,2.8,0,0,0,.8,1.1,2.3,2.3,0,0,0,1.1.8,3.4,3.4,0,0,0,2.8,0,2.5,2.5,0,0,0,1.2-.8,4.1,4.1,0,0,0,.7-1.1,4,4,0,0,0,.3-1.5,3.2,3.2,0,0,0-.3-1.4A3.5,3.5,0,0,0,125.8,78.5Z" transform="translate(-25 -36.6)"/><path class="cls-1" d="M146,79.7a3.5,3.5,0,0,0-.7-1.2,5,5,0,0,0-1.2-.8,3.4,3.4,0,0,0-2.8,0,5,5,0,0,0-1.2.8,3.5,3.5,0,0,0-.7,1.2,3.2,3.2,0,0,0-.3,1.4,4,4,0,0,0,.3,1.5,4.1,4.1,0,0,0,.7,1.1,3.7,3.7,0,0,0,5.2,0,4.1,4.1,0,0,0,.7-1.1,4,4,0,0,0,.3-1.5A3.2,3.2,0,0,0,146,79.7Z" transform="translate(-25 -36.6)"/><path class="cls-1" d="M134.5,79.9a1.1,1.1,0,0,0,.5-1,1.2,1.2,0,0,0-.5-1,1.6,1.6,0,0,0-1.1-.3h-2.2v2.7h2.2A1.2,1.2,0,0,0,134.5,79.9Z" transform="translate(-25 -36.6)"/><path class="cls-1" d="M212.1,81.2c.2-.2.5-.4.6-.7a1.7,1.7,0,0,0,.3-1,1.9,1.9,0,0,0-.3-1c-.1-.3-.4-.5-.6-.7l-1-.2h-1.8v3.8h1.8Z" transform="translate(-25 -36.6)"/><path class="cls-1" d="M176.4,77.8l-1-.2h-1.8v3.8h1.8l1-.2c.2-.2.5-.4.6-.7a1.7,1.7,0,0,0,.3-1,1.9,1.9,0,0,0-.3-1C176.9,78.2,176.6,78,176.4,77.8Z" transform="translate(-25 -36.6)"/><path class="cls-1" d="M184.2,84.8a3.2,3.2,0,0,0,1.4-.3,4.4,4.4,0,0,0,1.9-1.9,3.9,3.9,0,0,0,.2-1.5,3.2,3.2,0,0,0-.2-1.4,2.5,2.5,0,0,0-.8-1.2l-1.1-.8a3.2,3.2,0,0,0-1.4-.3,4,4,0,0,0-1.5.3l-1.1.8a2.4,2.4,0,0,0-.7,1.2,3.2,3.2,0,0,0-.3,1.4,4,4,0,0,0,.3,1.5,2.6,2.6,0,0,0,.7,1.1,2.8,2.8,0,0,0,1.1.8A4,4,0,0,0,184.2,84.8Z" transform="translate(-25 -36.6)"/><path class="cls-1" d="M134.6,84.5l.7-.6a1.5,1.5,0,0,0,.2-.9c0-.4,0-.7-.2-.9a1.8,1.8,0,0,0-.7-.5l-.9-.2h-2.5v3.3h2.5Z" transform="translate(-25 -36.6)"/><path class="cls-2" d="M83.7,94h-7a.7.7,0,0,0-.7.7v12.6a.7.7,0,0,0,.7.7h3a.7.7,0,0,0,.7-.7v-3.1h3.3c4.7,0,6.9-2.2,6.9-5.1S88.4,94,83.7,94Zm0,7H80.4V97.2h3.3c1.5,0,2.3.8,2.3,1.9S85.2,101,83.7,101Z" transform="translate(-25 -36.6)"/><path class="cls-2" d="M106.3,104.2a5,5,0,0,0-1.9-2.2v-.2s2.7-.6,2.7-3.2S105,94,100.6,94H93.3a.7.7,0,0,0-.7.7v12.6a.7.7,0,0,0,.7.7h3a.7.7,0,0,0,.7-.7v-4.1h2.6a1.7,1.7,0,0,1,1.8,1l1.7,3.1a1.2,1.2,0,0,0,1.3.7h3.1c.5,0,.7-.4.5-.7Zm-5.7-4.2H97V97.2h3.6c1.3,0,1.9.6,1.9,1.4S101.9,100,100.6,100Z" transform="translate(-25 -36.6)"/><path class="cls-2" d="M117.5,93.6c-5.3,0-8.2,2.9-8.2,7.4s2.9,7.4,8.2,7.4,8.2-2.9,8.2-7.4S122.8,93.6,117.5,93.6Zm0,11.5c-2.2,0-3.6-1.4-3.6-4.1s1.4-4.1,3.6-4.1,3.6,1.4,3.6,4.1S119.7,105.1,117.5,105.1Z" transform="translate(-25 -36.6)"/><path class="cls-3" d="M142,94H128.8a.7.7,0,0,0-.7.7v12.6a.7.7,0,0,0,.7.7h3a.7.7,0,0,0,.7-.7V97.4h5.8v9.9a.7.7,0,0,0,.7.7h3a.7.7,0,0,0,.7-.7V94.7A.7.7,0,0,0,142,94Z" transform="translate(-25 -36.6)"/><path class="cls-3" d="M153.3,93.6c-5.3,0-8.2,2.9-8.2,7.4s2.9,7.4,8.2,7.4,8.2-2.9,8.2-7.4S158.6,93.6,153.3,93.6Zm0,11.5c-2.2,0-3.6-1.4-3.6-4.1s1.4-4.1,3.6-4.1,3.6,1.4,3.6,4.1S155.5,105.1,153.3,105.1Z" transform="translate(-25 -36.6)"/><path class="cls-3" d="M177.7,94h-6.1c-4,0-6,2-6.8,5.2l-2,8.1c-.1.4.2.7.7.7h3a.8.8,0,0,0,.8-.7l2-8.1a2.2,2.2,0,0,1,2.3-1.8H174v9.9a.7.7,0,0,0,.7.7h3a.7.7,0,0,0,.7-.7V94.7A.7.7,0,0,0,177.7,94Z" transform="translate(-25 -36.6)"/><path class="cls-3" d="M195.5,94h-3.4a1.4,1.4,0,0,0-1.1.7l-5,7.3h-.2V94.7a.7.7,0,0,0-.7-.7h-3a.7.7,0,0,0-.7.7v12.6a.7.7,0,0,0,.7.7h3.4a1.4,1.4,0,0,0,1.1-.7l5-7.3h.2v7.3a.7.7,0,0,0,.7.7h3a.7.7,0,0,0,.7-.7V94.7A.7.7,0,0,0,195.5,94Z" transform="translate(-25 -36.6)"/><path class="cls-3" d="M213.4,102.6h-2.5a1.3,1.3,0,0,0-1.2.8,3,3,0,0,1-2.9,1.7c-2.2,0-3.6-1.4-3.6-4.1s1.4-4.1,3.6-4.1a2.9,2.9,0,0,1,2.7,1.5,1.3,1.3,0,0,0,1.2.8h2.5a.7.7,0,0,0,.8-.8c0-2.3-2.5-4.8-7.2-4.8s-8.2,2.9-8.2,7.4,2.9,7.4,8.2,7.4,7.4-2.6,7.4-5A.7.7,0,0,0,213.4,102.6Z" transform="translate(-25 -36.6)"/><path class="cls-2" d="M68.8,55l-18-18.4L32.6,54.5h0a25.5,25.5,0,0,0-5.3,28.7V77.4l2.9-1.3v12a23.1,23.1,0,0,0,2,2.4V61.2L35,59.6V93.3l1.8,1.9V58.4l3-1.7V98.2l2.2,2.2V55.2l2.6-1.8V103l2.4,2.5V52.4l2.6-1.7v57.4l.9,1,1.2-1.2v-58L66,60.4V93.8l2.7-2.6h0A25.5,25.5,0,0,0,68.8,55Z" transform="translate(-25 -36.6)"/><path class="cls-2" d="M78.9,84.5a4.9,4.9,0,0,0,1.4,1.1,5.8,5.8,0,0,0,1.9.3l1.5-.2,1.4-.8v-.2a.4.4,0,0,0,.1-.3.8.8,0,0,0-.2-.4h-.3c-.1-.1-.3,0-.4.1l-1.1.6-1.1.2a3.2,3.2,0,0,1-1.4-.3,2.8,2.8,0,0,1-1.1-.8,3.5,3.5,0,0,1-.7-1.2,3.4,3.4,0,0,1,0-2.8,4.7,4.7,0,0,1,.7-1.2l1.1-.8a3.2,3.2,0,0,1,1.4-.3l1.2.2.9.6.5.2.4-.2c.1-.1.1-.2.1-.4v-.2h-.1v-.2a5.6,5.6,0,0,0-1.3-.7,4.1,4.1,0,0,0-1.6-.3,4.1,4.1,0,0,0-1.9.4,4.5,4.5,0,0,0-1.4,1,3.6,3.6,0,0,0-1,1.5,4.7,4.7,0,0,0,0,3.8A3.1,3.1,0,0,0,78.9,84.5Z" transform="translate(-25 -36.6)"/><path class="cls-2" d="M93.3,77.6l.4-.2c.1-.1.1-.2.1-.4s0-.3-.1-.4l-.4-.2H86.8l-.4.2c-.1.1-.1.2-.1.4s0,.3.1.4l.4.2h2.6v7.6a.5.5,0,0,0,.2.4l.5.2.4-.2a.5.5,0,0,0,.2-.4V77.6Z" transform="translate(-25 -36.6)"/><path class="cls-2" d="M95.8,85.8l.5-.2a.5.5,0,0,0,.2-.4V82.6h1.7a3.8,3.8,0,0,0,1.6-.4,2.3,2.3,0,0,0,1.1-1.1,3.4,3.4,0,0,0,0-3.2,2.9,2.9,0,0,0-1.1-1.1,3.8,3.8,0,0,0-1.6-.4H95.8l-.4.2a.8.8,0,0,0-.2.5v8.1a.5.5,0,0,0,.2.4Zm.7-8.2h1.7l1,.2.7.7a3.6,3.6,0,0,1,.2,1,3,3,0,0,1-.2,1l-.7.7-1,.2H96.5Z" transform="translate(-25 -36.6)"/><path class="cls-2" d="M109.3,84.9l-3.3-8a.6.6,0,0,0-1.2,0l-3.4,8a.6.6,0,0,0,0,.6.7.7,0,0,0,.6.3h.3l.2-.3.7-1.7h4.3l.7,1.7.2.3h.4a.5.5,0,0,0,.5-.3Q109.5,85.4,109.3,84.9Zm-5.7-2.2,1.8-4.3,1.7,4.3Z" transform="translate(-25 -36.6)"/><path class="cls-2" d="M110.7,85.8l.5-.2,2.7-3.6,2.6,3.6h.5a.7.7,0,0,0,.6-.6c0-.1-.1-.3-.1-.4l-2.7-3.7,2.7-3.7a.6.6,0,0,0,.1-.4c0-.2,0-.3-.1-.4l-.4-.2-.5.2-2.7,3.6-2.5-3.6-.5-.2-.4.2-.2.4.2.4,2.6,3.7-2.8,3.7a.6.6,0,0,0-.1.4c0,.2,0,.3.1.4A.5.5,0,0,0,110.7,85.8Z" transform="translate(-25 -36.6)"/><path class="cls-2" d="M126.6,77.7a3.1,3.1,0,0,0-1.5-1,3.8,3.8,0,0,0-1.9-.4,4.1,4.1,0,0,0-1.9.4,3.1,3.1,0,0,0-1.5,1,4,4,0,0,0-1,1.5,5.8,5.8,0,0,0-.4,1.9,5.5,5.5,0,0,0,1.4,3.5,5.6,5.6,0,0,0,1.5,1,5.8,5.8,0,0,0,1.9.3,5.4,5.4,0,0,0,1.9-.3,5.6,5.6,0,0,0,1.5-1,3.9,3.9,0,0,0,1-1.6,3.8,3.8,0,0,0,.4-1.9,4.1,4.1,0,0,0-.4-1.9A3.1,3.1,0,0,0,126.6,77.7Zm-.1,4.9a4.1,4.1,0,0,1-.7,1.1,2.5,2.5,0,0,1-1.2.8,3.4,3.4,0,0,1-2.8,0,2.3,2.3,0,0,1-1.1-.8,2.8,2.8,0,0,1-.8-1.1,4,4,0,0,1-.3-1.5,3.2,3.2,0,0,1,.3-1.4,2.5,2.5,0,0,1,.8-1.2,3.1,3.1,0,0,1,1.1-.8,3.4,3.4,0,0,1,2.8,0,3.6,3.6,0,0,1,1.2.8,3.5,3.5,0,0,1,.7,1.2,3.2,3.2,0,0,1,.3,1.4A4,4,0,0,1,126.5,82.6Z" transform="translate(-25 -36.6)"/><path class="cls-2" d="M130.6,85.8h3.1a2.9,2.9,0,0,0,1.6-.4,2.6,2.6,0,0,0,1.1-1,3.2,3.2,0,0,0,.3-1.4,2.4,2.4,0,0,0-.4-1.5,3.5,3.5,0,0,0-1.3-.8,1.6,1.6,0,0,0,.9-.7,2.2,2.2,0,0,0-.1-2.4,3.8,3.8,0,0,0-.9-.9,3.7,3.7,0,0,0-1.5-.3h-2.8l-.5.2a.8.8,0,0,0-.2.5v8.1a.5.5,0,0,0,.2.4Zm.6-8.2h2.2a1.6,1.6,0,0,1,1.1.3,1.2,1.2,0,0,1,.5,1,1.1,1.1,0,0,1-.5,1,1.2,1.2,0,0,1-1.1.4h-2.2Zm0,3.8h2.5l.9.2a1.8,1.8,0,0,1,.7.5c.2.2.2.5.2.9a1.5,1.5,0,0,1-.2.9l-.7.6-.9.2h-2.5Z" transform="translate(-25 -36.6)"/><path class="cls-2" d="M147.1,83a5.3,5.3,0,0,0,.4-1.9,5.8,5.8,0,0,0-.4-1.9,4.6,4.6,0,0,0-2.5-2.5,4.7,4.7,0,0,0-3.8,0,4.6,4.6,0,0,0-2.5,2.5,5.8,5.8,0,0,0-.4,1.9,5.3,5.3,0,0,0,.4,1.9,3.9,3.9,0,0,0,1,1.6,5.6,5.6,0,0,0,1.5,1,6.2,6.2,0,0,0,3.8,0,5.6,5.6,0,0,0,1.5-1A3.9,3.9,0,0,0,147.1,83Zm-1.8.7a3.7,3.7,0,0,1-5.2,0,4.1,4.1,0,0,1-.7-1.1,4,4,0,0,1-.3-1.5,3.2,3.2,0,0,1,.3-1.4,3.5,3.5,0,0,1,.7-1.2,5,5,0,0,1,1.2-.8,3.4,3.4,0,0,1,2.8,0,5,5,0,0,1,1.2.8,3.5,3.5,0,0,1,.7,1.2,3.2,3.2,0,0,1,.3,1.4,4,4,0,0,1-.3,1.5A4.1,4.1,0,0,1,145.3,83.7Z" transform="translate(-25 -36.6)"/><path class="cls-2" d="M150.1,85.8h.2c.1,0,.2,0,.2-.1l5.8-7.2v6.8c0,.2,0,.3.2.4a.5.5,0,0,0,.4.2l.5-.2c.1-.1.1-.2.1-.4V77.1a.7.7,0,0,0-.1-.5l-.5-.2c-.2,0-.3.1-.5.3l-5.7,7.2V77.1a.8.8,0,0,0-.2-.5l-.4-.2-.5.2a.8.8,0,0,0-.2.5v8.1a.5.5,0,0,0,.2.4Z" transform="translate(-25 -36.6)"/><path class="cls-2" d="M152.4,75.4l1.1.2,1.1-.2.8-.6a1.3,1.3,0,0,0,.3-.8c0-.2-.1-.3-.2-.5h-.8a.9.9,0,0,0-.1.5c0,.2-.1.3-.3.5l-.8.2-.8-.2c-.2-.2-.3-.3-.3-.5s-.1-.3-.2-.5h-.7c-.1.2-.2.3-.2.5a1.3,1.3,0,0,0,.3.8Z" transform="translate(-25 -36.6)"/><path class="cls-2" d="M164.1,85.8h3.3a2.7,2.7,0,0,0,1.6-.4,1.8,1.8,0,0,0,1.1-1,2.3,2.3,0,0,0,.4-1.4,2.1,2.1,0,0,0-.4-1.4,2.7,2.7,0,0,0-1.1-1,3.8,3.8,0,0,0-1.6-.3h-2.7V77.6h4.5l.4-.2c.1-.1.1-.2.1-.4s0-.3-.1-.4l-.4-.2h-5.1l-.5.2a.8.8,0,0,0-.2.5v8.1a.5.5,0,0,0,.2.4Zm.6-4.4h3.7a2,2,0,0,1,.7.6,2,2,0,0,1,.2.9,2.9,2.9,0,0,1-.2.9l-.7.6-1,.2h-2.7Z" transform="translate(-25 -36.6)"/><path class="cls-2" d="M177,76.8a4.2,4.2,0,0,0-1.6-.4H173l-.5.2a.7.7,0,0,0-.1.5v8.1c0,.2,0,.3.1.4l.5.2.4-.2c.2-.1.2-.2.2-.4V82.6h1.8a4.2,4.2,0,0,0,1.6-.4,3.8,3.8,0,0,0,1.1-1.1,3.4,3.4,0,0,0,0-3.2A5.7,5.7,0,0,0,177,76.8Zm0,3.7c-.1.3-.4.5-.6.7l-1,.2h-1.8V77.6h1.8l1,.2c.2.2.5.4.6.7a1.9,1.9,0,0,1,.3,1A1.7,1.7,0,0,1,177,80.5Z" transform="translate(-25 -36.6)"/><path class="cls-2" d="M184.2,85.9a5.8,5.8,0,0,0,1.9-.3,5.6,5.6,0,0,0,1.5-1,4.8,4.8,0,0,0,1.3-3.5,5.8,5.8,0,0,0-.3-1.9,4,4,0,0,0-1-1.5,3.1,3.1,0,0,0-1.5-1,4.1,4.1,0,0,0-1.9-.4,4.5,4.5,0,0,0-2,.4,4.4,4.4,0,0,0-1.5,1,3.8,3.8,0,0,0-.9,1.5,4.1,4.1,0,0,0-.4,1.9,3.8,3.8,0,0,0,.4,1.9,5.1,5.1,0,0,0,.9,1.6l1.5,1A6.4,6.4,0,0,0,184.2,85.9Zm-3.3-3.3a4,4,0,0,1-.3-1.5,3.2,3.2,0,0,1,.3-1.4,2.4,2.4,0,0,1,.7-1.2l1.1-.8a4,4,0,0,1,1.5-.3,3.2,3.2,0,0,1,1.4.3l1.1.8a2.5,2.5,0,0,1,.8,1.2,3.2,3.2,0,0,1,.2,1.4,3.9,3.9,0,0,1-.2,1.5,4.4,4.4,0,0,1-1.9,1.9,3.2,3.2,0,0,1-1.4.3,4,4,0,0,1-1.5-.3,2.8,2.8,0,0,1-1.1-.8A2.6,2.6,0,0,1,180.9,82.6Z" transform="translate(-25 -36.6)"/><path class="cls-2" d="M194.4,80.9l3.1-3.5c.1-.1.1-.2.1-.4a.6.6,0,0,0-.1-.4l-.5-.2-.4.2-3.2,3.9h-1.3V77.1a.7.7,0,0,0-.1-.5l-.5-.2-.4.2a.8.8,0,0,0-.2.5v8.1a.5.5,0,0,0,.2.4l.4.2.5-.2c.1-.1.1-.2.1-.4V81.6h1.3l3.5,4a.5.5,0,0,0,.4.2c.2,0,.4,0,.5-.2a.5.5,0,0,0,.2-.4c0-.1-.1-.2-.2-.4Z" transform="translate(-25 -36.6)"/><path class="cls-2" d="M200.3,85.8h5.4l.5-.2c.1-.1.1-.2.1-.4s0-.3-.1-.4h-5.3v-3h3.5l.4-.2a.8.8,0,0,0,.2-.4.5.5,0,0,0-.2-.4l-.4-.2h-3.5V77.6h4.8l.5-.2c.1-.1.1-.2.1-.4s0-.3-.1-.4l-.5-.2h-5.4l-.5.2a.7.7,0,0,0-.1.5v8.1c0,.2,0,.3.1.4Z" transform="translate(-25 -36.6)"/><path class="cls-2" d="M208.7,85.8a.5.5,0,0,0,.4-.2c.2-.1.2-.2.2-.4V82.6h1.8a4.2,4.2,0,0,0,1.6-.4,3.8,3.8,0,0,0,1.1-1.1,3.4,3.4,0,0,0,0-3.2,5.7,5.7,0,0,0-1.1-1.1,4.2,4.2,0,0,0-1.6-.4h-2.4l-.5.2a.7.7,0,0,0-.1.5v8.1c0,.2,0,.3.1.4Zm.6-8.2h1.8l1,.2c.2.2.5.4.6.7a1.9,1.9,0,0,1,.3,1,1.7,1.7,0,0,1-.3,1c-.1.3-.4.5-.6.7l-1,.2h-1.8Z" transform="translate(-25 -36.6)"/></svg>