<svg width="74" height="59" viewBox="0 0 74 59" fill="none" xmlns="http://www.w3.org/2000/svg">
<path d="M16.8905 21.9726L33.1919 9.09588L49.4933 21.9726C49.6201 22.0909 49.7731 22.1774 49.9398 22.225C50.1065 22.2727 50.282 22.28 50.4521 22.2466C50.6335 22.2632 50.8162 22.2342 50.9836 22.1625C51.1511 22.0907 51.298 21.9785 51.411 21.8357C51.6446 21.562 51.7612 21.2075 51.7355 20.8486C51.7099 20.4898 51.5442 20.1555 51.2741 19.9178L34.1508 6.35615C33.8925 6.16694 33.5806 6.06494 33.2603 6.06494C32.9401 6.06494 32.6283 6.16694 32.37 6.35615L15.2467 19.7809C14.956 19.9989 14.7639 20.3234 14.7125 20.683C14.6611 21.0427 14.7547 21.408 14.9727 21.6986C15.2092 21.9625 15.531 22.1345 15.8817 22.1846C16.2324 22.2347 16.5896 22.1597 16.8905 21.9726Z" fill="#4B4955"/>
<path d="M34.2877 10.6028C34.0617 10.4006 33.7691 10.2888 33.4658 10.2888C33.1625 10.2888 32.8699 10.4006 32.6438 10.6028L19.9041 20.6027C19.7361 20.6998 19.5968 20.8396 19.5006 21.0081C19.4043 21.1766 19.3545 21.3676 19.3562 21.5617V38.274C19.3871 38.6269 19.5413 38.9577 19.7919 39.2083C20.0424 39.4588 20.3732 39.613 20.7261 39.6439H46.0685C46.4319 39.6439 46.7803 39.4994 47.0372 39.2425C47.2941 38.9856 47.4384 38.6373 47.4384 38.274V21.5617C47.4571 21.3648 47.4144 21.167 47.3163 20.9954C47.2182 20.8237 47.0695 20.6866 46.8904 20.6027L34.2877 10.6028ZM44.6987 36.9041H22.096V22.2466L33.4658 13.4794L44.6987 22.2466V36.9041Z" fill="#4B4955"/>
<path d="M7.84942 58.4109H67.5754C71.0001 58.4109 73.8769 56.0823 73.8769 53.2056V46.6302C73.8989 46.445 73.8786 46.2572 73.8176 46.081C73.7565 45.9048 73.6562 45.7447 73.5244 45.6128C73.3925 45.4809 73.2324 45.3807 73.0562 45.3197C72.8799 45.2586 72.6922 45.2383 72.507 45.2603H66.3426V5.94521C66.3426 2.65754 62.9179 0.191772 58.6713 0.191772H7.84942C3.46586 0.191772 0.178223 2.65754 0.178223 5.94521V52.6576C0.178223 55.9453 3.46586 58.4109 7.84942 58.4109ZM71.1371 53.2056C71.1371 54.5754 69.4932 55.6712 67.5754 55.6712H13.6029C14.1143 54.4553 14.393 53.1544 14.4248 51.8357C14.487 50.522 14.2529 49.211 13.7398 48H71.1371V53.2056ZM2.91795 5.94521C2.91795 4.30138 5.1097 2.9315 7.84942 2.9315H58.6713C61.2741 2.9315 63.6029 4.30138 63.6029 5.94521V45.2603H10.8631C10.8631 45.2966 10.8487 45.3314 10.823 45.3571C10.7973 45.3828 10.7624 45.3973 10.7261 45.3973H10.5892C10.5528 45.3973 10.5179 45.4117 10.4922 45.4374C10.4666 45.4631 10.4522 45.4979 10.4522 45.5342H10.1782V45.8083C10.1782 45.9453 10.3152 45.9452 10.3152 46.0822C11.0598 47.4775 11.4812 49.0226 11.5481 50.6028C11.5109 51.9358 11.1836 53.2446 10.5892 54.4383H7.84942C5.1097 54.4383 2.91795 53.0685 2.91795 51.4247V5.94521Z" fill="#4B4955"/>
</svg>
