<svg width="67" height="55" viewBox="0 0 67 55" fill="none" xmlns="http://www.w3.org/2000/svg">
<path d="M7.71226 54.5755H58.5341C60.5687 54.5755 62.5199 53.7672 63.9585 52.3285C65.3972 50.8899 66.2054 48.9386 66.2054 46.9041V19.9179C66.1702 17.8943 65.3507 15.9635 63.9196 14.5324C62.4885 13.1013 60.5577 12.2819 58.5341 12.2467H49.3561V4.57541C49.3752 4.03058 49.282 3.48765 49.0823 2.98039C48.8825 2.47314 48.5805 2.01241 48.195 1.62692C47.8095 1.24142 47.3488 0.939403 46.8415 0.739649C46.3343 0.539894 45.7913 0.446692 45.2465 0.465827H20.9999C20.4551 0.446692 19.9121 0.539894 19.4049 0.739649C18.8976 0.939403 18.4369 1.24142 18.0514 1.62692C17.6659 2.01241 17.3639 2.47314 17.1641 2.98039C16.9644 3.48765 16.8712 4.03058 16.8903 4.57541V12.2467H7.71226C5.68872 12.2819 3.75786 13.1013 2.32678 14.5324C0.895706 15.9635 0.0762156 17.8943 0.0410156 19.9179V46.9041C0.0410156 47.9115 0.239431 48.9091 0.624946 49.8398C1.01046 50.7705 1.57552 51.6162 2.28786 52.3285C3.0002 53.0409 3.84587 53.606 4.77659 53.9915C5.70731 54.3771 6.70486 54.5755 7.71226 54.5755ZM19.63 4.57541C19.608 4.39022 19.6283 4.20249 19.6894 4.02627C19.7504 3.85004 19.8507 3.68993 19.9825 3.55805C20.1144 3.42617 20.2745 3.32588 20.4507 3.26483C20.6269 3.20378 20.8147 3.18352 20.9999 3.20555H45.2465C45.4317 3.18352 45.6195 3.20378 45.7957 3.26483C45.9719 3.32588 46.132 3.42617 46.2639 3.55805C46.3957 3.68993 46.496 3.85004 46.557 4.02627C46.6181 4.20249 46.6384 4.39022 46.6164 4.57541V12.2467H19.63V4.57541ZM2.78074 19.9179C2.78074 18.61 3.30031 17.3556 4.22514 16.4308C5.14998 15.5059 6.40434 14.9864 7.71226 14.9864H58.5341C59.1818 14.9864 59.8231 15.1139 60.4214 15.3617C61.0197 15.6096 61.5633 15.9728 62.0213 16.4308C62.4792 16.8887 62.8425 17.4323 63.0903 18.0306C63.3381 18.629 63.4657 19.2703 63.4657 19.9179V46.9041C63.4657 48.212 62.9461 49.4665 62.0213 50.3913C61.0964 51.3161 59.8421 51.8357 58.5341 51.8357H7.71226C6.40434 51.8357 5.14998 51.3161 4.22514 50.3913C3.30031 49.4665 2.78074 48.212 2.78074 46.9041V19.9179Z" fill="#4B4955"/>
<path d="M16.6164 33.0685L32.9178 20.1919L49.2191 33.0685C49.4299 33.3063 49.7244 33.4536 50.0411 33.4796C50.4633 33.445 50.8559 33.2486 51.1369 32.9316C51.2449 32.7877 51.3234 32.6239 51.3681 32.4496C51.4127 32.2754 51.4226 32.094 51.3971 31.9159C51.3717 31.7378 51.3114 31.5665 51.2198 31.4117C51.1281 31.2569 51.0069 31.1217 50.863 31.0137L33.7397 17.4521C33.5137 17.25 33.221 17.1382 32.9178 17.1382C32.6145 17.1382 32.3219 17.25 32.0959 17.4521L14.8356 30.8768C14.5655 31.1144 14.3997 31.4489 14.3741 31.8077C14.3485 32.1665 14.465 32.521 14.6986 32.7946C14.935 33.0585 15.2569 33.2305 15.6076 33.2806C15.9584 33.3307 16.3155 33.2556 16.6164 33.0685Z" fill="#4B4955"/>
<path d="M34.0137 21.6986C33.7359 21.5651 33.4316 21.4957 33.1233 21.4957C32.815 21.4957 32.5107 21.5651 32.2329 21.6986L19.6301 31.6986C19.44 31.8059 19.2863 31.9676 19.1887 32.1628C19.0911 32.3581 19.054 32.5781 19.0822 32.7946V49.3699C19.0822 49.7332 19.2265 50.0817 19.4834 50.3386C19.7403 50.5955 20.0887 50.7397 20.452 50.7397H45.7945C46.1475 50.7089 46.4783 50.5547 46.7288 50.3041C46.9793 50.0536 47.1335 49.7228 47.1644 49.3699V32.7946C47.1644 32.5819 47.1149 32.3721 47.0198 32.1819C46.9247 31.9917 46.7866 31.8262 46.6164 31.6986L34.0137 21.6986ZM44.4247 48H21.8219V33.3426L33.1918 24.5754L44.4247 33.3426V48Z" fill="#4B4955"/>
</svg>
