<svg width="78" height="56" viewBox="0 0 78 56" fill="none" xmlns="http://www.w3.org/2000/svg">
<path d="M6.01367 8.57525V35.5616C6.04887 37.5851 6.8684 39.5159 8.29948 40.947C9.73055 42.378 11.6613 43.1976 13.6849 43.2328H64.5068C66.5541 43.2331 68.5197 42.4293 69.9801 40.9944C71.4406 39.5596 72.279 37.6086 72.3149 35.5616V8.57525C72.279 6.52821 71.4406 4.5772 69.9801 3.14237C68.5197 1.70754 66.5541 0.903738 64.5068 0.904053H13.6849C11.6503 0.904053 9.69915 1.71226 8.26052 3.1509C6.82188 4.58953 6.01367 6.54071 6.01367 8.57525ZM69.5752 8.57525V35.5616C69.5395 36.8819 68.9898 38.1362 68.0432 39.0573C67.0965 39.9784 65.8276 40.4935 64.5068 40.493H13.6849C13.0373 40.493 12.396 40.3655 11.7977 40.1176C11.1994 39.8698 10.6557 39.5066 10.1978 39.0487C9.73982 38.5907 9.37663 38.047 9.1288 37.4487C8.88097 36.8504 8.7534 36.2092 8.7534 35.5616V8.57525C8.7534 7.26733 9.27292 6.01297 10.1978 5.08814C11.1226 4.1633 12.3769 3.64378 13.6849 3.64378H64.5068C65.8276 3.6433 67.0965 4.15843 68.0432 5.07953C68.9898 6.00062 69.5395 7.25489 69.5752 8.57525Z" fill="#4B4955"/>
<path d="M31.2191 25.8356L29.8492 33.9178C29.8275 34.173 29.8658 34.4299 29.9609 34.6677C30.056 34.9055 30.2054 35.1178 30.3972 35.2877L31.2191 35.5617H31.904L39.1643 31.7261L46.4246 35.5617C46.6407 35.6777 46.8864 35.7265 47.1304 35.7021C47.3744 35.6777 47.6056 35.5811 47.7945 35.4246C48.007 35.2724 48.1715 35.0625 48.2686 34.8198C48.3657 34.5771 48.3913 34.3116 48.3423 34.0548L46.9725 25.9726L52.863 20.2192C53.0654 20.0619 53.2137 19.8455 53.2874 19.6C53.361 19.3545 53.3563 19.092 53.2739 18.8493C53.0489 18.398 52.6552 18.0535 52.178 17.8904L43.9588 16.7945L40.3972 9.39723C40.285 9.16563 40.1099 8.97037 39.8918 8.8337C39.6738 8.69703 39.4217 8.62451 39.1643 8.62451C38.907 8.62451 38.6548 8.69703 38.4368 8.8337C38.2187 8.97037 38.0436 9.16563 37.9314 9.39723L34.2328 16.7945L26.1506 17.8904C25.9018 17.9446 25.6708 18.061 25.4792 18.2287C25.2875 18.3964 25.1414 18.6099 25.0547 18.8493C24.9723 19.092 24.9676 19.3545 25.0413 19.6C25.1149 19.8455 25.2633 20.0619 25.4657 20.2192L31.2191 25.8356ZM35.3286 19.2603C35.5674 19.2315 35.7944 19.1404 35.9867 18.9961C36.1791 18.8519 36.3301 18.6595 36.4246 18.4384L39.1643 12.9589L41.9041 18.4384C41.9949 18.6366 42.1276 18.8128 42.2932 18.9547C42.4587 19.0966 42.6531 19.2008 42.8629 19.2603L49.0273 20.0822L44.6438 24.4657C44.4639 24.5774 44.326 24.7455 44.2517 24.9437C44.1773 25.142 44.1707 25.3593 44.2328 25.5617L45.1917 31.7261L39.7122 28.8493H38.4794L32.9999 31.7261L34.0958 25.5617C34.1579 25.3593 34.1513 25.142 34.0769 24.9437C34.0026 24.7455 33.8647 24.5774 33.6849 24.4657L29.3013 20.0822L35.3286 19.2603Z" fill="#4B4955"/>
<path d="M75.8768 44.7398H1.90413C1.71893 44.7178 1.53113 44.7381 1.3549 44.7991C1.17867 44.8602 1.01856 44.9604 0.886684 45.0922C0.754806 45.2241 0.654601 45.3842 0.593548 45.5605C0.532494 45.7367 0.51224 45.9245 0.534268 46.1097V47.0685C0.516085 48.1594 0.715218 49.2429 1.12012 50.256C1.52503 51.2691 2.12761 52.1913 2.89265 52.9691C3.65769 53.7469 4.56988 54.3646 5.57611 54.7862C6.58234 55.2078 7.66247 55.4249 8.75345 55.4247H69.0274C70.1184 55.4249 71.1985 55.2078 72.2047 54.7862C73.2109 54.3646 74.1232 53.7469 74.8882 52.9691C75.6533 52.1913 76.2558 51.2691 76.6607 50.256C77.0656 49.2429 77.2648 48.1594 77.2466 47.0685V46.1097C77.2686 45.9245 77.2484 45.7367 77.1873 45.5605C77.1263 45.3842 77.026 45.2241 76.8941 45.0922C76.7622 44.9604 76.6021 44.8602 76.4259 44.7991C76.2497 44.7381 76.062 44.7178 75.8768 44.7398ZM69.0274 52.685H8.75345C7.34645 52.6868 5.99268 52.1472 4.97261 51.1781C3.95254 50.2091 3.34434 48.8848 3.27399 47.4796H74.5069C74.4365 48.8848 73.8283 50.2091 72.8083 51.1781C71.7882 52.1472 70.4344 52.6868 69.0274 52.685Z" fill="#4B4955"/>
</svg>
