<svg width="67" height="59" viewBox="0 0 67 59" fill="none" xmlns="http://www.w3.org/2000/svg">
<path d="M59.2878 34.1233H38.0549C37.702 34.1542 37.3712 34.3084 37.1207 34.5589C36.8701 34.8094 36.7159 35.1402 36.6851 35.4932C36.6851 35.8565 36.8294 36.2049 37.0863 36.4618C37.3432 36.7187 37.6916 36.863 38.0549 36.863H59.2878C59.473 36.8851 59.6607 36.8648 59.837 36.8037C60.0132 36.7427 60.1733 36.6424 60.3051 36.5105C60.437 36.3786 60.5373 36.2186 60.5983 36.0424C60.6594 35.8662 60.6797 35.6784 60.6576 35.4932C60.6576 35.1298 60.5133 34.7814 60.2564 34.5245C59.9995 34.2676 59.6511 34.1233 59.2878 34.1233Z" fill="#4B4955"/>
<path d="M59.2878 40.8357H38.0549C37.702 40.8666 37.3712 41.0208 37.1207 41.2713C36.8701 41.5218 36.7159 41.8526 36.6851 42.2056C36.6851 42.5689 36.8294 42.9173 37.0863 43.1742C37.3432 43.4311 37.6916 43.5754 38.0549 43.5754H59.2878C59.473 43.5975 59.6607 43.5771 59.837 43.5161C60.0132 43.455 60.1733 43.3548 60.3051 43.2229C60.437 43.091 60.5373 42.9309 60.5983 42.7547C60.6594 42.5785 60.6797 42.3908 60.6576 42.2056C60.6576 41.8422 60.5133 41.4938 60.2564 41.2369C59.9995 40.98 59.6511 40.8357 59.2878 40.8357Z" fill="#4B4955"/>
<path d="M59.1507 18.6438H8.32873C7.02082 18.6438 5.76645 19.1633 4.84162 20.0882C3.91678 21.013 3.39722 22.2674 3.39722 23.5753V50.5616C3.39722 51.8695 3.91678 53.1238 4.84162 54.0487C5.76645 54.9735 7.02082 55.493 8.32873 55.493H59.1507C59.7983 55.493 60.4395 55.3655 61.0379 55.1177C61.6362 54.8699 62.1798 54.5066 62.6378 54.0487C63.0957 53.5908 63.4589 53.0471 63.7068 52.4488C63.9546 51.8505 64.0822 51.2092 64.0822 50.5616V23.5753C64.0822 22.2674 63.5626 21.013 62.6378 20.0882C61.7129 19.1633 60.4586 18.6438 59.1507 18.6438ZM29.6986 40.9725H28.1917V42.7533C28.1927 43.6008 27.9025 44.423 27.3698 45.0821C26.7362 45.6747 25.9082 46.0157 25.0411 46.041H22.8493V48.7808C22.7971 49.1304 22.6555 49.4607 22.4383 49.7397C22.1778 49.9865 21.8378 50.1322 21.4794 50.1506H12.7123C12.349 50.1506 12.0005 50.0063 11.7436 49.7494C11.4867 49.4925 11.3424 49.1441 11.3424 48.7808V43.5753C9.97258 42.2054 6.5479 39.0547 6.13694 36.452C5.72598 33.8493 6.41092 26.452 10.9315 23.9862C15.452 21.5205 20.9315 22.0684 22.9863 23.5753C25.0411 25.0821 28.0548 26.9999 29.1507 30.4246C29.677 31.5463 30.0016 32.752 30.1095 33.9863C30.6386 34.29 31.0959 34.7042 31.4505 35.2006C31.8051 35.697 32.0486 36.264 32.1643 36.8629C32.308 37.7292 32.1389 38.6182 31.6871 39.3712C31.2354 40.1241 30.5305 40.6917 29.6986 40.9725ZM59.2877 50.2876H38.0548C37.6915 50.2876 37.343 50.1432 37.0861 49.8863C36.8292 49.6294 36.6849 49.281 36.6849 48.9177C36.6849 48.5544 36.8292 48.206 37.0861 47.9491C37.343 47.6922 37.6915 47.5479 38.0548 47.5479H59.2877C59.651 47.5479 59.9994 47.6922 60.2563 47.9491C60.5132 48.206 60.6575 48.5544 60.6575 48.9177C60.6575 49.281 60.5132 49.6294 60.2563 49.8863C59.9994 50.1432 59.651 50.2876 59.2877 50.2876ZM59.2877 43.5753H38.0548C37.6915 43.5753 37.343 43.431 37.0861 43.1741C36.8292 42.9172 36.6849 42.5688 36.6849 42.2054C36.7158 41.8525 36.87 41.5217 37.1205 41.2712C37.371 41.0207 37.7018 40.8664 38.0548 40.8356H59.2877C59.651 40.8356 59.9994 40.9798 60.2563 41.2367C60.5132 41.4936 60.6575 41.8421 60.6575 42.2054C60.6795 42.3906 60.6592 42.5784 60.5982 42.7546C60.5371 42.9308 60.4369 43.0909 60.305 43.2228C60.1731 43.3547 60.0131 43.4549 59.8368 43.5159C59.6606 43.577 59.4729 43.5973 59.2877 43.5753ZM59.2877 36.8629H38.0548C37.6915 36.8629 37.343 36.7186 37.0861 36.4617C36.8292 36.2048 36.6849 35.8564 36.6849 35.4931C36.7158 35.1401 36.87 34.8094 37.1205 34.5588C37.371 34.3083 37.7018 34.1541 38.0548 34.1232H59.2877C59.651 34.1232 59.9994 34.2676 60.2563 34.5245C60.5132 34.7814 60.6575 35.1298 60.6575 35.4931C60.6795 35.6783 60.6592 35.8661 60.5982 36.0423C60.5371 36.2185 60.4369 36.3786 60.305 36.5105C60.1731 36.6423 60.0131 36.7426 59.8368 36.8037C59.6606 36.8647 59.4729 36.885 59.2877 36.8629Z" fill="white"/>
<path d="M28.4657 36.1781C28.249 36.0225 28.0733 35.8165 27.954 35.5778C27.8346 35.3391 27.7752 35.075 27.7808 34.8083C27.6428 33.6235 27.3192 32.4678 26.8219 31.3836C26 28.7809 23.2602 27 21.7534 25.9042C20.2465 24.8083 16.2739 24.5343 12.5753 26.4521C8.87669 28.3699 8.7397 33.4384 9.15066 36.1781C9.56162 38.9178 12.0274 40.4247 13.9452 41.9316C14.0833 42.0776 14.1908 42.2498 14.2614 42.438C14.332 42.6262 14.3642 42.8266 14.3561 43.0274V47.548H20.2466V44.8082C20.2774 44.4553 20.4316 44.1245 20.6822 43.874C20.9327 43.6235 21.2635 43.4692 21.6164 43.4384H25.452C25.5313 43.3681 25.5804 43.2699 25.589 43.1644V39.7397C25.6075 39.3814 25.7532 39.0414 26 38.7809C26.146 38.6428 26.3182 38.5352 26.5064 38.4646C26.6946 38.394 26.895 38.3618 27.0959 38.3699C27.82 38.507 28.5635 38.507 29.2876 38.3699C29.4557 38.2729 29.595 38.133 29.6912 37.9645C29.7875 37.7961 29.8373 37.6051 29.8356 37.411C29.6986 37.0001 29.0137 36.4521 28.4657 36.1781Z" fill="white"/>
<path d="M59.1506 15.9041H39.1506C39.3889 15.4896 39.4851 15.0085 39.4246 14.5342V4.39719C39.4437 3.85236 39.3505 3.30942 39.1507 2.80217C38.951 2.29491 38.649 1.83419 38.2635 1.44869C37.878 1.0632 37.4173 0.761181 36.91 0.561426C36.4028 0.361672 35.8599 0.268469 35.315 0.287604H32.1643C31.6195 0.268469 31.0765 0.361672 30.5693 0.561426C30.062 0.761181 29.6013 1.0632 29.2158 1.44869C28.8303 1.83419 28.5283 2.29491 28.3285 2.80217C28.1288 3.30942 28.0356 3.85236 28.0547 4.39719V14.5342C28.0672 15.0031 28.1599 15.4664 28.3287 15.9041H8.32871C6.30517 15.9393 4.37435 16.7588 2.94328 18.1899C1.5122 19.621 0.692671 21.5517 0.657471 23.5753V50.5616C0.657471 52.5961 1.46568 54.5473 2.90432 55.986C4.34295 57.4246 6.29417 58.2328 8.32871 58.2328H59.1506C61.1852 58.2328 63.1363 57.4246 64.575 55.986C66.0136 54.5473 66.8219 52.5961 66.8219 50.5616V23.5753C66.7867 21.5517 65.9671 19.621 64.5361 18.1899C63.105 16.7588 61.1742 15.9393 59.1506 15.9041ZM30.7945 14.5342V4.39719C30.7724 4.212 30.7927 4.02427 30.8538 3.84804C30.9148 3.67182 31.0151 3.51171 31.147 3.37983C31.2788 3.24795 31.4389 3.14766 31.6151 3.08661C31.7914 3.02556 31.9791 3.0053 32.1643 3.02733H35.315C35.5002 3.0053 35.688 3.02556 35.8642 3.08661C36.0404 3.14766 36.2005 3.24795 36.3324 3.37983C36.4643 3.51171 36.5645 3.67182 36.6256 3.84804C36.6866 4.02427 36.7069 4.212 36.6849 4.39719V14.5342C36.7069 14.7194 36.6866 14.9071 36.6256 15.0834C36.5645 15.2596 36.4643 15.4197 36.3324 15.5516C36.2005 15.6835 36.0404 15.7837 35.8642 15.8448C35.688 15.9059 35.5002 15.9261 35.315 15.9041H32.1643C31.9791 15.9261 31.7914 15.9059 31.6151 15.8448C31.4389 15.7837 31.2788 15.6835 31.147 15.5516C31.0151 15.4197 30.9148 15.2596 30.8538 15.0834C30.7927 14.9071 30.7724 14.7194 30.7945 14.5342ZM64.0821 50.5616C64.0821 51.2092 63.9546 51.8505 63.7067 52.4488C63.4589 53.0472 63.0957 53.5908 62.6377 54.0487C62.1798 54.5066 61.6361 54.8699 61.0378 55.1178C60.4395 55.3656 59.7982 55.4931 59.1506 55.4931H8.32871C7.02079 55.4931 5.76643 54.9736 4.8416 54.0487C3.91676 53.1239 3.3972 51.8695 3.3972 50.5616V23.5753C3.3972 22.2674 3.91676 21.013 4.8416 20.0882C5.76643 19.1633 7.02079 18.6438 8.32871 18.6438H59.1506C59.7982 18.6438 60.4395 18.7714 61.0378 19.0192C61.6361 19.267 62.1798 19.6302 62.6377 20.0882C63.0957 20.5461 63.4589 21.0898 63.7067 21.6881C63.9546 22.2864 64.0821 22.9277 64.0821 23.5753V50.5616Z" fill="#4B4955"/>
<path d="M59.2878 47.5479H38.0549C37.6916 47.5479 37.3432 47.6922 37.0863 47.9491C36.8294 48.206 36.6851 48.5544 36.6851 48.9177C36.6851 49.281 36.8294 49.6294 37.0863 49.8863C37.3432 50.1432 37.6916 50.2876 38.0549 50.2876H59.2878C59.6511 50.2876 59.9995 50.1432 60.2564 49.8863C60.5133 49.6294 60.6577 49.281 60.6577 48.9177C60.6577 48.5544 60.5133 48.206 60.2564 47.9491C59.9995 47.6922 59.6511 47.5479 59.2878 47.5479Z" fill="#4B4955"/>
<path d="M30.3835 34.1233C30.2755 32.889 29.9509 31.6833 29.4246 30.5617C28.3287 27.137 24.904 24.8082 23.2602 23.7124C21.6164 22.6165 15.863 21.5206 11.2054 24.1233C6.5479 26.726 5.86297 32.3424 6.41091 36.589C6.95886 40.8356 10.2465 42.3424 11.6164 43.7123V48.9178C11.6164 49.2811 11.7607 49.6295 12.0176 49.8864C12.2745 50.1433 12.6229 50.2876 12.9862 50.2876H21.7534C22.1117 50.2692 22.4518 50.1235 22.7123 49.8767C22.9295 49.5977 23.071 49.2674 23.1232 48.9178V46.178H25.315C26.1821 46.1527 27.0102 45.8117 27.6438 45.2191C28.1765 44.56 28.4666 43.7379 28.4657 42.8904V41.1095H29.9725C30.8291 40.885 31.5768 40.3606 32.0795 39.6316C32.5823 38.9027 32.8068 38.0175 32.7123 37.137C32.5855 36.488 32.309 35.8776 31.9047 35.3544C31.5004 34.8312 30.9795 34.4096 30.3835 34.1233ZM29.1506 38.2329C28.4265 38.37 27.683 38.37 26.9589 38.2329C26.758 38.2248 26.5576 38.257 26.3694 38.3276C26.1812 38.3982 26.009 38.5057 25.8629 38.6438C25.6161 38.9043 25.4704 39.2443 25.452 39.6027V43.0274C25.4433 43.1329 25.3943 43.2311 25.315 43.3014H21.4794C21.1265 43.3322 20.7957 43.4864 20.5451 43.737C20.2946 43.9875 20.1404 44.3183 20.1095 44.6712V47.4109H14.2191V43.0274C14.2272 42.8265 14.195 42.6261 14.1244 42.4379C14.0538 42.2497 13.9463 42.0775 13.8082 41.9315C11.8904 40.4247 9.28762 37.5479 9.01364 36.1781C8.73967 34.8082 8.87666 28.5069 12.4383 26.4521C15.9999 24.3973 20.3835 25.0822 21.6164 25.9041C22.8493 26.726 25.863 28.7808 26.6849 31.3835C27.1822 32.4677 27.5058 33.6234 27.6438 34.8082C27.6382 35.075 27.6976 35.3391 27.8169 35.5777C27.9363 35.8164 28.1119 36.0225 28.3287 36.1781C28.8767 36.452 29.5616 37 29.5616 37.2739C29.5782 37.4553 29.5493 37.638 29.4775 37.8054C29.4058 37.9729 29.2934 38.1198 29.1506 38.2329Z" fill="#4B4955"/>
</svg>
